<?xml version="1.0" encoding="UTF-8" ?>
<!DOCTYPE svg PUBLIC "-//W3C//DTD SVG 1.1//EN" "http://www.w3.org/Graphics/SVG/1.1/DTD/svg11.dtd">
<svg width="512pt" height="512pt" viewBox="0 0 512 512" version="1.1" xmlns="http://www.w3.org/2000/svg">
<g id="#000000ff">
<path fill="#000000" opacity="1.00" d=" M 213.82 0.00 L 214.50 0.00 C 216.85 0.37 219.32 1.14 220.84 3.11 C 222.96 5.55 222.90 8.96 222.94 12.00 C 222.86 21.69 222.95 31.38 222.91 41.08 C 222.94 44.15 222.12 47.54 219.46 49.40 C 216.05 52.10 210.64 51.50 207.90 48.13 C 205.49 45.34 205.85 41.42 205.78 37.99 C 205.97 27.99 205.56 17.98 205.96 7.99 C 206.10 3.75 209.75 0.48 213.82 0.00 Z" />
<path fill="#000000" opacity="1.00" d=" M 164.25 13.17 C 168.14 11.51 172.92 13.37 174.90 17.06 C 180.65 26.97 186.46 36.86 192.06 46.87 C 194.61 51.36 191.85 57.59 186.90 58.87 C 182.90 60.16 178.52 57.93 176.71 54.26 C 171.11 44.51 165.38 34.83 159.90 25.01 C 157.43 20.78 159.69 14.85 164.25 13.17 Z" />
<path fill="#000000" opacity="1.00" d=" M 257.40 13.50 C 260.74 11.70 265.25 12.49 267.69 15.43 C 270.20 18.13 270.44 22.44 268.54 25.55 C 263.36 34.66 258.04 43.70 252.85 52.82 C 251.35 55.53 249.23 58.32 245.98 58.89 C 241.47 59.99 236.52 56.61 235.90 52.02 C 235.36 49.44 236.54 46.98 237.75 44.79 C 242.77 36.10 247.81 27.43 252.78 18.72 C 253.96 16.72 255.24 14.58 257.40 13.50 Z" />
<path fill="#000000" opacity="1.00" d=" M 130.31 47.39 C 133.02 46.37 135.96 47.22 138.33 48.67 C 147.64 54.07 156.98 59.42 166.29 64.83 C 169.27 66.40 171.45 69.61 171.13 73.06 C 171.01 77.27 167.27 80.92 163.08 81.06 C 160.60 81.25 158.39 79.96 156.31 78.79 C 147.64 73.74 138.94 68.73 130.24 63.74 C 127.89 62.43 125.56 60.60 124.87 57.86 C 123.47 53.64 126.09 48.69 130.31 47.39 Z" />
<path fill="#000000" opacity="1.00" d=" M 293.27 47.35 C 297.32 45.93 302.16 48.30 303.62 52.32 C 305.27 56.15 303.50 60.89 299.88 62.88 C 290.16 68.56 280.43 74.22 270.63 79.74 C 266.78 82.13 261.30 80.92 258.96 77.02 C 256.15 72.79 258.23 66.85 262.66 64.71 C 272.87 58.96 282.83 52.67 293.27 47.35 Z" />
<path fill="#000000" opacity="1.00" d=" M 188.43 80.40 C 197.01 69.95 212.17 65.72 224.95 70.07 C 236.83 73.81 246.09 84.64 247.94 96.96 C 248.70 101.93 248.48 106.97 248.51 111.97 C 248.50 133.12 248.50 154.27 248.51 175.42 C 258.25 170.00 270.60 169.13 280.62 174.33 C 288.64 178.13 294.57 185.39 297.66 193.62 C 307.24 187.49 319.75 185.96 330.22 190.72 C 339.05 194.39 345.69 202.12 348.94 211.01 C 354.32 207.56 360.48 205.01 366.96 205.04 C 377.63 204.68 388.30 209.71 394.81 218.18 C 399.73 224.32 402.04 232.22 402.01 240.03 C 402.04 262.33 402.07 284.64 401.99 306.94 C 401.85 335.05 398.04 363.15 390.41 390.21 C 385.93 406.89 379.51 422.96 372.80 438.84 C 368.67 449.00 363.86 459.00 361.61 469.80 C 359.41 479.36 359.25 489.22 359.41 498.98 C 359.32 502.22 359.68 505.89 357.55 508.61 C 356.09 510.71 353.56 511.59 351.14 512.00 L 180.06 512.00 C 176.55 511.66 173.08 509.44 172.22 505.87 C 171.38 501.98 171.84 497.97 171.75 494.03 C 171.97 481.24 170.18 468.34 165.51 456.39 C 159.24 440.37 151.97 424.73 146.38 408.44 C 138.28 385.05 133.01 360.70 130.58 336.07 C 128.26 311.12 129.34 286.04 129.09 261.02 C 129.18 252.35 128.48 243.45 131.10 235.05 C 134.97 222.09 145.48 211.39 158.33 207.22 C 165.34 204.76 172.88 204.87 180.21 204.89 C 180.23 171.25 180.19 137.60 180.23 103.96 C 180.12 95.46 182.79 86.85 188.43 80.40 M 197.29 102.97 C 197.25 174.64 197.23 246.31 197.23 317.99 C 197.09 321.80 197.88 326.17 195.36 329.42 C 192.83 332.94 187.40 333.72 183.94 331.15 C 181.28 329.39 180.24 326.09 180.28 323.03 C 180.25 289.30 180.25 255.56 180.21 221.83 C 173.81 221.83 167.05 221.32 161.11 224.19 C 152.26 228.10 146.20 237.34 146.07 247.01 C 145.90 263.00 146.05 278.99 146.00 294.98 C 145.77 315.46 146.74 336.01 150.39 356.19 C 154.34 379.90 161.52 402.99 170.93 425.09 C 176.21 438.34 182.64 451.26 185.82 465.25 C 188.17 475.00 188.71 485.08 188.71 495.08 C 239.95 495.09 291.18 495.10 342.42 495.08 C 342.39 484.84 343.00 474.52 345.47 464.55 C 348.35 451.80 354.14 440.01 359.00 427.96 C 366.76 409.83 373.36 391.16 377.60 371.88 C 383.35 347.37 385.46 322.13 385.12 297.00 C 385.09 277.66 385.18 258.31 385.08 238.97 C 385.21 230.61 378.42 222.95 370.13 222.05 C 360.44 220.74 351.23 229.33 350.99 238.93 C 350.72 253.26 351.11 267.60 350.81 281.93 C 350.73 286.10 347.22 289.80 343.05 290.05 C 338.02 290.60 333.51 285.98 333.88 280.99 C 333.77 261.33 333.91 241.66 333.81 222.00 C 333.79 217.10 331.69 212.22 327.93 209.06 C 321.33 203.06 310.10 203.68 304.23 210.40 C 299.90 214.76 299.41 221.21 299.68 227.02 C 299.71 244.68 299.68 262.34 299.70 280.00 C 299.71 282.81 299.15 285.90 296.90 287.83 C 293.60 291.06 287.69 290.72 284.77 287.15 C 282.76 284.95 282.61 281.82 282.60 279.00 C 282.66 255.32 282.59 231.64 282.64 207.97 C 282.69 204.33 282.50 200.53 280.80 197.24 C 277.65 190.71 270.02 186.74 262.86 188.02 C 254.73 189.16 248.30 196.85 248.53 205.05 C 248.46 230.04 248.52 255.04 248.50 280.03 C 248.49 282.55 248.09 285.26 246.32 287.19 C 243.37 290.75 237.44 291.04 234.17 287.78 C 231.97 285.85 231.41 282.81 231.43 280.02 C 231.45 223.00 231.42 165.99 231.44 108.97 C 231.40 104.14 231.91 98.98 229.47 94.59 C 226.48 88.60 219.70 84.85 213.04 85.44 C 204.19 85.90 196.90 94.16 197.29 102.97 Z" />
<path fill="#000000" opacity="1.00" d=" M 117.31 94.60 C 119.77 93.71 122.44 93.89 125.01 93.85 C 134.69 93.94 144.37 93.79 154.04 93.92 C 158.24 93.74 162.35 96.79 162.93 101.04 C 163.89 105.85 159.86 110.77 154.96 110.83 C 144.28 111.10 133.59 110.85 122.91 110.96 C 119.52 111.10 115.65 110.39 113.65 107.35 C 110.42 103.20 112.36 96.39 117.31 94.60 Z" />
<path fill="#000000" opacity="1.00" d=" M 271.35 94.45 C 275.15 93.46 279.13 93.99 283.01 93.88 C 291.72 94.00 300.45 93.62 309.14 94.06 C 314.25 94.38 317.97 100.06 316.29 104.88 C 315.30 108.50 311.67 110.92 307.98 110.88 C 296.97 111.01 285.96 110.94 274.95 110.91 C 271.07 111.10 267.11 108.72 266.04 104.88 C 264.65 100.71 267.15 95.76 271.35 94.45 Z" />
</g>
</svg>
