<?xml version="1.0" encoding="UTF-8" standalone="no"?>
<!-- Creator: CorelDRAW X8 -->

<svg
   xml:space="preserve"
   width="5.88135in"
   height="5.88327in"
   version="1.1"
   style="shape-rendering:geometricPrecision; text-rendering:geometricPrecision; image-rendering:optimizeQuality; fill-rule:evenodd; clip-rule:evenodd"
   viewBox="0 0 2052 2053"
   id="svg15"
   sodipodi:docname="git-logo.svg"
   inkscape:export-filename="git-logo.svg"
   inkscape:export-xdpi="96"
   inkscape:export-ydpi="96"
   inkscape:version="1.2.1 (9c6d41e410, 2022-07-14)"
   xmlns:inkscape="http://www.inkscape.org/namespaces/inkscape"
   xmlns:sodipodi="http://sodipodi.sourceforge.net/DTD/sodipodi-0.dtd"
   xmlns="http://www.w3.org/2000/svg"
   xmlns:svg="http://www.w3.org/2000/svg"><sodipodi:namedview
   id="namedview17"
   pagecolor="#ffffff"
   bordercolor="#000000"
   borderopacity="0.25"
   inkscape:showpageshadow="2"
   inkscape:pageopacity="0.0"
   inkscape:pagecheckerboard="0"
   inkscape:deskcolor="#d1d1d1"
   inkscape:document-units="in"
   showgrid="false"
   inkscape:zoom="1.4819565"
   inkscape:cx="282.05956"
   inkscape:cy="282.73434"
   inkscape:window-width="1920"
   inkscape:window-height="1017"
   inkscape:window-x="-8"
   inkscape:window-y="-8"
   inkscape:window-maximized="1"
   inkscape:current-layer="Layer_x0020_1" />
 <defs
   id="defs9">
  <style
   type="text/css"
   id="style2">
   <![CDATA[
    .fil0 {fill:url(#id0)}
   ]]>
  </style>
  <linearGradient
   id="id0"
   gradientUnits="userSpaceOnUse"
   x1="1025.95"
   y1="2052.56"
   x2="1025.95"
   y2="0">
   <stop
   offset="0"
   style="stop-opacity:1; stop-color:#843DE9"
   id="stop4" />
   <stop
   offset="1"
   style="stop-opacity:1; stop-color:#CE5DC9"
   id="stop6" />
  </linearGradient>
 </defs>
 <g
   id="Layer_x0020_1"
   inkscape:label="Layer 1">
  <metadata
   id="CorelCorpID_0Corel-Layer" />
  <path
   class="fil0"
   d="M745 225l236 238c16,-8 41,-7 61,-7 106,0 173,128 135,207l229 227c43,-8 14,-7 68,-7 41,0 93,33 115,70 76,126 -35,254 -141,240 -22,-2 -35,-3 -51,-11 -42,-19 -76,-52 -90,-99 -9,-32 -8,-77 6,-105l-212 -211 -1 559c102,53 111,177 45,246 -81,84 -214,51 -254,-36 -26,-55 -21,-118 15,-166 14,-18 43,-44 67,-49l0 -566c-46,-11 -98,-76 -98,-133 0,-54 1,-29 11,-72l-233 -233c-14,9 -543,542 -593,592 -32,32 -56,65 -60,105l0 22c1,14 5,28 11,43 7,17 16,25 26,38 22,28 640,642 703,705 27,26 172,174 192,191 39,33 54,40 107,40 33,0 68,-23 85,-41 231,-233 469,-468 701,-701 54,-54 142,-138 191,-191 42,-45 48,-110 14,-163 -5,-9 -9,-11 -15,-19 -22,-28 -643,-645 -707,-708 -43,-44 -84,-85 -128,-128 -41,-42 -86,-95 -143,-102l-26 0c-24,3 -49,14 -76,36 -18,14 -183,178 -190,189z"
   id="path12" />
 </g>
</svg>
