<?xml version="1.0" encoding="UTF-8" standalone="no"?>
<!-- Creator: CorelDRAW X8 -->

<svg
   xml:space="preserve"
   width="6.03223in"
   height="5.88327in"
   version="1.1"
   style="shape-rendering:geometricPrecision; text-rendering:geometricPrecision; image-rendering:optimizeQuality; fill-rule:evenodd; clip-rule:evenodd"
   viewBox="0 0 371 361"
   id="svg15"
   sodipodi:docname="github-logo.svg"
   inkscape:export-filename="github-logo.svg"
   inkscape:export-xdpi="96"
   inkscape:export-ydpi="96"
   inkscape:version="1.2.1 (9c6d41e410, 2022-07-14)"
   xmlns:inkscape="http://www.inkscape.org/namespaces/inkscape"
   xmlns:sodipodi="http://sodipodi.sourceforge.net/DTD/sodipodi-0.dtd"
   xmlns="http://www.w3.org/2000/svg"
   xmlns:svg="http://www.w3.org/2000/svg"><sodipodi:namedview
   id="namedview17"
   pagecolor="#ffffff"
   bordercolor="#000000"
   borderopacity="0.25"
   inkscape:showpageshadow="2"
   inkscape:pageopacity="0.0"
   inkscape:pagecheckerboard="0"
   inkscape:deskcolor="#d1d1d1"
   inkscape:document-units="in"
   showgrid="false"
   inkscape:zoom="1.4819565"
   inkscape:cx="289.48218"
   inkscape:cy="282.73434"
   inkscape:window-width="1920"
   inkscape:window-height="1017"
   inkscape:window-x="-8"
   inkscape:window-y="-8"
   inkscape:window-maximized="1"
   inkscape:current-layer="Layer_x0020_1" />
 <defs
   id="defs9">
  <style
   type="text/css"
   id="style2">
   <![CDATA[
    .fil0 {fill:url(#id0)}
   ]]>
  </style>
  <linearGradient
   id="id0"
   gradientUnits="userSpaceOnUse"
   x1="-0"
   y1="180.732"
   x2="370.615"
   y2="180.732">
   <stop
   offset="0"
   style="stop-opacity:1; stop-color:#843DE9"
   id="stop4" />
   <stop
   offset="1"
   style="stop-opacity:1; stop-color:#CE5DC9"
   id="stop6" />
  </linearGradient>
 </defs>
 <g
   id="Layer_x0020_1"
   inkscape:label="Layer 1">
  <metadata
   id="CorelCorpID_0Corel-Layer" />
  <path
   class="fil0"
   d="M185 0c-102,0 -185,83 -185,185 0,82 53,152 127,176 9,2 12,-4 12,-9 0,-4 0,-19 0,-34 -51,11 -62,-22 -62,-22 -9,-22 -21,-27 -21,-27 -17,-12 1,-12 1,-12 19,2 29,20 29,20 16,28 43,20 54,15 1,-12 6,-20 11,-25 -41,-4 -84,-20 -84,-91 0,-21 7,-37 19,-50 -2,-5 -8,-24 2,-49 0,0 16,-5 51,19 15,-4 31,-6 46,-6 16,0 32,2 47,6 35,-24 51,-19 51,-19 10,25 3,44 1,49 12,13 20,29 20,50 0,71 -44,86 -85,91 7,6 12,17 12,34 0,25 0,45 0,51 0,5 4,11 13,9 74,-24 127,-94 127,-176 0,-102 -83,-185 -186,-185zm-115 266c0,1 -2,1 -3,1 -1,-1 -2,-2 -2,-3 1,-1 2,-1 4,-1 1,1 2,2 1,3l0 0zm8 8c-1,1 -3,1 -4,0 -1,-2 -2,-3 -1,-4 1,-1 3,-1 4,1 1,1 2,3 1,3l0 0zm7 11c-1,1 -3,0 -4,-1 -1,-2 -1,-4 0,-5 1,-1 3,0 4,2 1,1 1,3 0,4l0 0zm10 10c-1,2 -3,1 -5,0 -1,-2 -2,-4 -1,-5 1,-1 3,-1 5,1 2,1 2,3 1,4l0 0zm14 6c-1,2 -3,3 -5,2 -2,-1 -3,-2 -3,-4 1,-1 3,-2 5,-1 2,0 3,2 3,3l0 0zm15 2c0,1 -2,2 -4,2 -2,0 -4,-1 -4,-2 0,-2 2,-3 4,-3 2,0 4,1 4,3l0 0zm14 -3c0,2 -1,3 -3,4 -3,0 -5,-1 -5,-2 0,-2 2,-4 4,-4 2,0 4,1 4,2l0 0z"
   id="path12" />
 </g>
</svg>
