<?xml version="1.0" encoding="UTF-8" standalone="no"?>
<!-- Creator: CorelDRAW X8 -->

<svg
   xml:space="preserve"
   width="5.88489in"
   height="5.88327in"
   version="1.1"
   style="shape-rendering:geometricPrecision; text-rendering:geometricPrecision; image-rendering:optimizeQuality; fill-rule:evenodd; clip-rule:evenodd"
   viewBox="0 0 685 685"
   id="svg22"
   sodipodi:docname="instagram.svg"
   inkscape:export-filename="instagram.svg"
   inkscape:export-xdpi="96"
   inkscape:export-ydpi="96"
   inkscape:version="1.2.1 (9c6d41e410, 2022-07-14)"
   xmlns:inkscape="http://www.inkscape.org/namespaces/inkscape"
   xmlns:sodipodi="http://sodipodi.sourceforge.net/DTD/sodipodi-0.dtd"
   xmlns="http://www.w3.org/2000/svg"
   xmlns:svg="http://www.w3.org/2000/svg"><sodipodi:namedview
   id="namedview24"
   pagecolor="#ffffff"
   bordercolor="#000000"
   borderopacity="0.25"
   inkscape:showpageshadow="2"
   inkscape:pageopacity="0.0"
   inkscape:pagecheckerboard="0"
   inkscape:deskcolor="#d1d1d1"
   inkscape:document-units="in"
   showgrid="false"
   inkscape:zoom="1.4819565"
   inkscape:cx="282.73434"
   inkscape:cy="282.73434"
   inkscape:window-width="1920"
   inkscape:window-height="1017"
   inkscape:window-x="-8"
   inkscape:window-y="-8"
   inkscape:window-maximized="1"
   inkscape:current-layer="Layer_x0020_1" />
 <defs
   id="defs16">
  <style
   type="text/css"
   id="style9">
   <![CDATA[
    .fil0 {fill:url(#id0)}
   ]]>
  </style>
  <linearGradient
   id="id0"
   gradientUnits="userSpaceOnUse"
   x1="576.848"
   y1="92.57"
   x2="108.35"
   y2="592.439">
   <stop
   offset="0"
   style="stop-opacity:1; stop-color:#843DE9"
   id="stop11" />
   <stop
   offset="1"
   style="stop-opacity:1; stop-color:#CE5DC9"
   id="stop13" />
  </linearGradient>
 </defs>
 <g
   id="Layer_x0020_1"
   inkscape:label="Layer 1">
  <metadata
   id="CorelCorpID_0Corel-Layer" />
  <path
   class="fil0"
   d="M343 0c-143,0 -185,0 -193,1 -30,2 -48,7 -68,17 -15,7 -27,16 -39,29 -22,22 -35,50 -40,83 -2,16 -3,19 -3,101 0,27 0,63 0,111 0,143 0,185 1,193 2,29 7,47 16,66 18,38 53,66 94,77 14,3 29,5 49,6 9,1 95,1 182,1 87,0 173,0 181,-1 23,-1 37,-2 52,-6 41,-11 75,-39 93,-77 10,-19 14,-38 17,-65 0,-6 0,-100 0,-194 0,-94 0,-188 0,-194 -3,-27 -7,-46 -17,-65 -8,-16 -17,-28 -29,-40 -23,-22 -51,-35 -84,-40 -16,-2 -19,-3 -101,-3l-111 0zm0 90c-69,0 -78,0 -105,1 -27,1 -45,6 -61,12 -17,6 -31,15 -45,29 -14,14 -23,28 -29,45 -6,16 -11,34 -12,61 -1,27 -1,36 -1,105 0,68 0,77 1,104 1,27 6,45 12,61 6,17 15,31 29,45 14,14 28,23 45,29 16,6 34,11 61,12 27,1 36,1 105,1 68,0 77,0 104,-1 27,-1 45,-6 61,-12 17,-6 31,-15 45,-29 14,-14 23,-28 29,-45 6,-16 11,-34 12,-61 1,-27 1,-36 1,-104 0,-69 0,-78 -1,-105 -1,-27 -6,-45 -12,-61 -6,-17 -15,-31 -29,-45 -14,-14 -28,-23 -45,-29 -16,-6 -34,-11 -61,-12 -27,-1 -36,-1 -105,-1l1 0zm-23 45c7,0 14,0 23,0 67,0 75,0 102,2 24,1 38,5 47,8 12,5 20,10 29,19 9,9 14,18 19,29 3,9 7,23 8,47 2,27 2,35 2,102 0,68 0,76 -2,103 -1,24 -5,38 -8,47 -5,11 -10,20 -19,29 -9,9 -17,14 -29,19 -9,3 -23,7 -47,8 -27,2 -35,2 -102,2 -68,0 -76,0 -103,-2 -24,-1 -38,-5 -47,-8 -11,-5 -20,-10 -29,-19 -9,-9 -14,-18 -19,-29 -3,-9 -7,-23 -8,-47 -2,-27 -2,-35 -2,-103 0,-67 0,-75 2,-102 1,-24 5,-38 8,-47 5,-12 10,-20 19,-29 9,-9 18,-14 29,-19 9,-3 23,-7 47,-8 24,-2 33,-2 80,-2l0 0zm158 42c-17,0 -31,14 -31,31 0,16 14,30 31,30 16,0 30,-14 30,-30 0,-17 -14,-31 -30,-31l0 0zm-135 36c-72,0 -130,58 -130,130 0,71 58,129 130,129 71,0 129,-58 129,-129 0,-72 -58,-130 -129,-130l0 0zm0 45c46,0 84,38 84,85 0,46 -38,84 -84,84 -47,0 -85,-38 -85,-84 0,-47 38,-85 85,-85z"
   id="path19" />
 </g>
</svg>
