<?xml version="1.0" encoding="UTF-8" standalone="no"?>
<!-- Creator: CorelDRAW X8 -->

<svg
   xml:space="preserve"
   width="12.5939in"
   height="3.41613in"
   version="1.1"
   style="shape-rendering:geometricPrecision; text-rendering:geometricPrecision; image-rendering:optimizeQuality; fill-rule:evenodd; clip-rule:evenodd"
   viewBox="0 0 1226 333"
   id="svg20"
   sodipodi:docname="jasmine-logo.svg"
   inkscape:export-filename="jasmine-logo.svg"
   inkscape:export-xdpi="96"
   inkscape:export-ydpi="96"
   inkscape:version="1.2.1 (9c6d41e410, 2022-07-14)"
   xmlns:inkscape="http://www.inkscape.org/namespaces/inkscape"
   xmlns:sodipodi="http://sodipodi.sourceforge.net/DTD/sodipodi-0.dtd"
   xmlns:xlink="http://www.w3.org/1999/xlink"
   xmlns="http://www.w3.org/2000/svg"
   xmlns:svg="http://www.w3.org/2000/svg"><sodipodi:namedview
   id="namedview22"
   pagecolor="#ffffff"
   bordercolor="#000000"
   borderopacity="0.25"
   inkscape:showpageshadow="2"
   inkscape:pageopacity="0.0"
   inkscape:pagecheckerboard="0"
   inkscape:deskcolor="#d1d1d1"
   inkscape:document-units="in"
   showgrid="false"
   inkscape:zoom="1.0008152"
   inkscape:cx="604.50719"
   inkscape:cy="163.86641"
   inkscape:window-width="1920"
   inkscape:window-height="1017"
   inkscape:window-x="-8"
   inkscape:window-y="-8"
   inkscape:window-maximized="1"
   inkscape:current-layer="Layer_x0020_1" />
 <defs
   id="defs11">
  <style
   type="text/css"
   id="style2">
   <![CDATA[
    .fil2 {fill:url(#id0)}
    .fil1 {fill:url(#id1)}
    .fil0 {fill:url(#id2)}
   ]]>
  </style>
  <linearGradient
   id="id0"
   gradientUnits="userSpaceOnUse"
   x1="-0"
   y1="166.306"
   x2="332.593"
   y2="166.306">
   <stop
   offset="0"
   style="stop-opacity:1; stop-color:#843DE9"
   id="stop4" />
   <stop
   offset="1"
   style="stop-opacity:1; stop-color:#CE5DC9"
   id="stop6" />
  </linearGradient>
  <linearGradient
   id="id1"
   gradientUnits="userSpaceOnUse"
   xlink:href="#id0"
   x1="146.993"
   y1="98.8119"
   x2="185.549"
   y2="98.8119">
  </linearGradient>
  <linearGradient
   id="id2"
   gradientUnits="userSpaceOnUse"
   xlink:href="#id0"
   x1="375.934"
   y1="169.452"
   x2="1226.21"
   y2="169.452">
  </linearGradient>
 </defs>
 <g
   id="Layer_x0020_1"
   inkscape:label="Layer 1">
  <metadata
   id="CorelCorpID_0Corel-Layer" />
  <g
   id="_2093027739312">
   <path
   id="path7"
   class="fil0"
   d="M1203 177c-4,-16 -19,-26 -35,-26 -15,0 -29,11 -32,26l67 0zm19 32c-9,21 -29,36 -52,36 -32,0 -58,-26 -58,-58 0,-33 25,-59 57,-59 16,0 31,7 42,18 11,11 15,26 15,41l-1 9 -89 0c3,15 17,27 33,27 11,0 21,-5 27,-14l26 0m-227 -54l-15 0 0 -24 40 0 0 16c7,-12 19,-18 33,-18 12,0 23,5 31,14 10,10 10,19 10,32l0 43 14 0 0 24 -54 0 0 -24 15 0 0 -36c0,-6 0,-13 -5,-19 -4,-6 -12,-9 -19,-9 -8,0 -16,3 -20,9 -5,6 -5,16 -5,23l0 32 14 0 0 24 -54 0 0 -24 15 0 0 -63m-36 -34l-26 0 0 -27 26 0 0 27zm0 97l14 0 0 24 -54 0 0 -24 14 0 0 -63 -14 0 0 -24 40 0 0 87m-228 -63l-14 0 0 -24 37 0 0 17c7,-12 18,-19 32,-19 15,0 28,9 34,23 6,-14 21,-23 36,-23 12,0 24,5 32,14 9,10 9,21 9,33l0 42 14 0 0 24 -54 0 0 -24 14 0 0 -35c0,-8 0,-14 -3,-20 -4,-6 -11,-9 -18,-9 -7,0 -14,2 -19,8 -5,6 -5,13 -5,21l0 35 15 0 0 24 -54 0 0 -24 14 0 0 -34c0,-6 0,-15 -3,-20 -4,-7 -11,-10 -18,-10 -7,0 -13,2 -18,8 -6,6 -6,14 -6,22l0 34 14 0 0 24 -53 0 0 -24 14 0 0 -63m-83 55c1,10 8,16 18,16 8,0 15,-5 15,-13 0,-11 -10,-13 -19,-15 -19,-5 -40,-11 -40,-36 0,-21 18,-33 38,-33 9,0 18,2 25,10l0 -8 18 0 0 30 -24 0c-1,-7 -7,-13 -14,-13 -7,0 -15,4 -15,12 0,10 11,13 19,14 19,5 41,11 41,36 0,22 -19,35 -40,35 -11,0 -21,-4 -28,-12l0 9 -19 0 0 -32 25 0m-72 -24c0,-18 -15,-33 -33,-33 -19,0 -34,16 -34,34 0,18 16,33 33,33 19,0 34,-15 34,-34zm0 41c-8,12 -21,18 -36,18 -32,0 -57,-27 -57,-58 0,-32 26,-58 58,-58 15,0 27,6 35,18l0 -16 39 0 0 24 -14 0 0 63 14 0 0 24 -39 0 0 -15m-171 -27c1,9 6,19 16,19 7,0 11,-3 14,-8 3,-6 3,-13 3,-19l0 -74 -16 0 0 -24 60 0 0 24 -16 0 0 77c0,14 -1,24 -10,35 -8,9 -22,15 -34,15 -27,0 -47,-18 -46,-45l29 0z"
   inkscape:connector-curvature="0" />
   <g
   id="g844">
    <polygon
   id="path9"
   class="fil1"
   points="153,138 179,138 186,129 186,60 147,60 147,129 "
   inkscape:connector-curvature="0" />
    <path
   id="path11"
   class="fil2"
   d="M161 272l10 0 0 -52 -10 0 0 52zm-96 -69l-3 -11 50 -16 3 10 -50 17m65 -80l-31 -43 9 -6 30 42 -8 7m73 0l-8 -6 31 -43 8 7 -31 42m64 80l-50 -16 3 -10 50 16 -3 10m-79 -59l8 25 10 3 66 -21 -12 -37 -66 21 -6 9m4 35l-20 15 0 11 40 56 31 -23 -40 -56 -11 -3m-31 15l-21 -15 -10 3 -41 56 31 23 41 -56 0 -11m-24 -25l8 -25 -7 -9 -65 -21 -12 37 65 21 11 -3m29 -169c-91,0 -166,75 -166,166 0,92 75,167 166,167 92,0 167,-75 167,-167 0,-91 -75,-166 -167,-166zm0 34c74,0 133,59 133,132 0,74 -59,133 -133,133 -73,0 -132,-59 -132,-133 0,-73 59,-132 132,-132z"
   inkscape:connector-curvature="0" />
   </g>
  </g>
 </g>
</svg>
