<?xml version="1.0" encoding="UTF-8" standalone="no"?>
<!-- Creator: CorelDRAW X8 -->

<svg
   xml:space="preserve"
   width="4.7850299in"
   height="3.3985202in"
   version="1.1"
   style="clip-rule:evenodd;fill-rule:evenodd;image-rendering:optimizeQuality;shape-rendering:geometricPrecision;text-rendering:geometricPrecision"
   viewBox="0 0 1714 1218.0001"
   id="svg306"
   sodipodi:docname="js-logo.svg"
   inkscape:export-filename="js-logo.svg"
   inkscape:export-xdpi="96"
   inkscape:export-ydpi="96"
   inkscape:version="1.2.1 (9c6d41e410, 2022-07-14)"
   xmlns:inkscape="http://www.inkscape.org/namespaces/inkscape"
   xmlns:sodipodi="http://sodipodi.sourceforge.net/DTD/sodipodi-0.dtd"
   xmlns="http://www.w3.org/2000/svg"
   xmlns:svg="http://www.w3.org/2000/svg"><sodipodi:namedview
   id="namedview308"
   pagecolor="#ffffff"
   bordercolor="#000000"
   borderopacity="0.25"
   inkscape:showpageshadow="2"
   inkscape:pageopacity="0.0"
   inkscape:pagecheckerboard="0"
   inkscape:deskcolor="#d1d1d1"
   inkscape:document-units="in"
   showgrid="false"
   inkscape:zoom="2.5654548"
   inkscape:cx="229.58892"
   inkscape:cy="163.32387"
   inkscape:window-width="1920"
   inkscape:window-height="1017"
   inkscape:window-x="-8"
   inkscape:window-y="-8"
   inkscape:window-maximized="1"
   inkscape:current-layer="Layer_x0020_1" />
 <defs
   id="defs301"><style
     type="text/css"
     id="style294">
   <![CDATA[
    .fil0 {fill:url(#id0)}
   ]]>
  </style><linearGradient
     id="id0"
     gradientUnits="userSpaceOnUse"
     x1="0"
     y1="608.849"
     x2="1714.49"
     y2="608.849">
   <stop
   offset="0"
   style="stop-opacity:1; stop-color:#843DE9"
   id="stop296" />
   <stop
   offset="1"
   style="stop-opacity:1; stop-color:#CE5DC9"
   id="stop298" />
  </linearGradient></defs>
 <g
   id="Layer_x0020_1"
   inkscape:label="Layer 1"
   inkscape:groupmode="layer">
  <metadata
   id="CorelCorpID_0Corel-Layer" />
  <path
   id="path2989"
   class="fil0"
   d="M 321,1216 C 225,1209 138,1170 76,1107 40,1070 -7,999 1,992 8,986 192,877 195,877 c 2,0 9,8 15,19 48,85 106,116 185,100 55,-12 81,-46 88,-116 3,-21 4,-203 4,-452 V 11 h 122 121 v 441 c 0,260 -2,453 -4,469 -26,205 -174,312 -405,295 z m 942,0 c -164,-11 -292,-81 -373,-205 -14,-21 -26,-40 -26,-41 0,-2 183,-109 195,-114 4,-1 10,4 20,20 35,52 85,93 138,111 39,14 110,17 147,7 69,-18 106,-58 106,-115 0,-63 -35,-98 -147,-147 -27,-13 -75,-34 -105,-47 C 1061,616 985,543 952,430 938,386 935,301 944,256 c 13,-64 39,-111 86,-158 52,-51 109,-79 189,-93 48,-9 149,-6 193,5 88,23 158,72 211,151 l 21,31 -9,7 c -6,4 -48,32 -95,63 l -86,54 -17,-25 c -34,-51 -72,-75 -128,-78 -59,-3 -98,16 -119,58 -9,18 -10,26 -10,50 1,68 33,94 194,164 124,53 190,92 242,141 72,70 102,150 98,264 -2,62 -8,88 -33,138 -62,130 -221,202 -418,188 z"
   inkscape:connector-curvature="0"
   style="fill:url(#id0)" />
 </g>
</svg>
