<?xml version="1.0" encoding="UTF-8" standalone="no"?>
<!-- Creator: CorelDRAW X8 -->

<svg
   xml:space="preserve"
   width="6.06339in"
   height="5.88327in"
   version="1.1"
   style="shape-rendering:geometricPrecision; text-rendering:geometricPrecision; image-rendering:optimizeQuality; fill-rule:evenodd; clip-rule:evenodd"
   viewBox="0 0 895 869"
   id="svg14"
   sodipodi:docname="kubectl-logo.svg"
   inkscape:export-filename="kubectl-logo.svg"
   inkscape:export-xdpi="96"
   inkscape:export-ydpi="96"
   inkscape:version="1.2.1 (9c6d41e410, 2022-07-14)"
   xmlns:inkscape="http://www.inkscape.org/namespaces/inkscape"
   xmlns:sodipodi="http://sodipodi.sourceforge.net/DTD/sodipodi-0.dtd"
   xmlns="http://www.w3.org/2000/svg"
   xmlns:svg="http://www.w3.org/2000/svg"><sodipodi:namedview
   id="namedview16"
   pagecolor="#ffffff"
   bordercolor="#000000"
   borderopacity="0.25"
   inkscape:showpageshadow="2"
   inkscape:pageopacity="0.0"
   inkscape:pagecheckerboard="0"
   inkscape:deskcolor="#d1d1d1"
   inkscape:document-units="in"
   showgrid="false"
   inkscape:zoom="1.4819565"
   inkscape:cx="290.83175"
   inkscape:cy="282.73434"
   inkscape:window-width="1920"
   inkscape:window-height="1017"
   inkscape:window-x="-8"
   inkscape:window-y="-8"
   inkscape:window-maximized="1"
   inkscape:current-layer="Layer_x0020_1" />
 <defs
   id="defs9">
  <style
   type="text/css"
   id="style2">
   <![CDATA[
    .fil0 {fill:url(#id0)}
   ]]>
  </style>
  <linearGradient
   id="id0"
   gradientUnits="userSpaceOnUse"
   x1="49.3904"
   y1="235.742"
   x2="845.897"
   y2="632.949">
   <stop
   offset="0"
   style="stop-opacity:1; stop-color:#843DE9"
   id="stop4" />
   <stop
   offset="1"
   style="stop-opacity:1; stop-color:#CE5DC9"
   id="stop6" />
  </linearGradient>
 </defs>
 <g
   id="Layer_x0020_1"
   inkscape:label="Layer 1">
  <metadata
   id="CorelCorpID_0Corel-Layer" />
  <path
   id="path3055"
   class="fil0"
   d="M445 0c-8,0 -16,2 -23,6l-312 149c-16,7 -28,22 -32,40l-77 334c0,4 -1,8 -1,13 0,11 3,22 10,32 1,2 2,3 3,5l215 267c12,15 29,23 47,23 0,0 0,0 0,0l345 0c0,0 0,0 0,0 19,0 36,-9 47,-23l215 -267c9,-11 13,-24 13,-37 0,-5 0,-9 -1,-13l-77 -334c-4,-18 -16,-33 -32,-41l-312 -148c-8,-4 -16,-6 -25,-6 -1,0 -2,0 -3,0l0 0zm3 114c-11,0 -19,9 -19,20 0,1 0,1 0,1 0,2 0,3 0,5 0,6 2,11 3,17 1,13 2,24 2,34 -1,4 -4,7 -6,10l-1 8c-11,1 -22,2 -34,5 -48,11 -90,36 -121,69 -2,-1 -6,-3 -7,-4 -3,0 -7,1 -11,-1 -8,-6 -16,-14 -25,-23 -4,-5 -7,-9 -12,-13 -2,-1 -3,-2 -5,-3 -4,-3 -8,-5 -13,-5 -5,0 -11,2 -14,6 -7,8 -5,21 4,28 0,0 0,0 0,0 2,1 3,2 4,3 6,4 10,6 16,9 11,7 20,13 27,20 3,3 4,8 4,10l6 6c-32,48 -47,107 -38,168l-8 2c-2,3 -5,7 -8,8 -9,3 -20,4 -33,6 -6,0 -11,0 -18,1 -1,0 -3,1 -5,1 0,0 0,0 0,0 0,0 0,0 0,0 -11,3 -18,13 -16,23 2,10 13,16 24,14 0,0 0,0 0,0 0,0 0,-1 1,-1 1,0 3,0 4,-1 7,-1 11,-4 17,-6 12,-4 23,-8 33,-10 4,0 8,3 10,4l8 -1c19,58 58,105 108,134l-4 8c2,3 3,7 2,11 -3,9 -10,19 -17,30 -3,5 -7,9 -10,15 0,1 -1,3 -2,5 -5,10 -1,22 8,26 9,5 21,0 26,-10 0,0 0,0 0,0 0,0 0,0 0,0 0,-2 1,-4 2,-5 3,-6 3,-11 5,-17 5,-13 8,-26 15,-34 2,-2 5,-3 8,-4l4 -7c43,16 92,21 140,10 11,-3 22,-6 32,-10 1,2 3,6 4,7 3,1 7,2 9,6 5,9 9,19 13,32 2,5 3,11 6,17 0,1 1,3 2,4 5,11 16,15 26,11 9,-4 12,-16 8,-27 -1,-1 -2,-3 -3,-5 -3,-5 -6,-9 -10,-14 -7,-11 -13,-21 -16,-30 -2,-5 0,-8 1,-11 -1,-1 -2,-5 -3,-7 51,-31 89,-79 107,-136 3,1 7,2 8,2 3,-2 6,-4 11,-4 10,1 20,5 32,9 6,3 11,5 17,7 1,0 3,1 5,1 0,0 0,0 0,0 0,0 0,0 0,0 11,3 22,-4 24,-13 3,-10 -4,-21 -15,-23 -2,-1 -4,-1 -6,-1 -6,-2 -12,-1 -18,-2 -13,-1 -23,-2 -33,-5 -4,-2 -7,-7 -8,-8l-8 -3c4,-28 3,-57 -4,-87 -6,-29 -18,-56 -34,-80 2,-2 5,-5 6,-6 0,-4 0,-7 4,-11 7,-7 16,-12 27,-19 6,-3 11,-5 16,-9 1,-1 3,-3 4,-4 9,-7 11,-19 5,-27 -7,-8 -19,-9 -28,-2 -2,1 -3,3 -4,4 -5,4 -8,8 -13,13 -9,9 -16,17 -25,22 -3,2 -9,2 -11,2l-7 5c-41,-43 -96,-70 -155,-75 0,-3 0,-7 0,-8 -3,-3 -6,-5 -6,-10 -1,-10 0,-21 2,-34 1,-6 2,-11 2,-17 0,-2 0,-4 0,-6 0,-11 -8,-20 -18,-20l0 0zm-24 144l-5 98 -1 0c0,9 -7,16 -16,16 -4,0 -7,-1 -10,-3l0 0 -80 -57c25,-24 56,-42 92,-50 7,-2 14,-3 20,-4l0 0zm47 0c42,5 82,25 112,54l-80 57 0 -1c-7,6 -17,4 -23,-3 -2,-2 -3,-6 -3,-9l0 0 -6 -98zm-188 91l73 65 0 0c7,6 8,16 2,23 -2,3 -5,5 -8,6l0 0 -94 27c-5,-44 5,-86 27,-121l0 0zm329 0c11,17 19,37 24,58 5,21 6,42 4,63l-94 -27 0 -1c-9,-2 -14,-11 -12,-19 1,-4 3,-7 5,-9l0 0 73 -65 0 0zm-179 70l30 0 18 23 -6 29 -27 13 -27 -13 -7 -29 19 -23zm96 80c1,0 2,0 3,0l1 0 97 16c-15,40 -42,75 -78,98l-38 -91 0 0c-3,-8 0,-18 8,-22 2,-1 5,-1 7,-1l0 0zm-163 0c7,0 14,5 16,13 0,3 0,7 -1,10l0 0 -37 90c-35,-22 -63,-55 -78,-96l96 -17 1 0c1,0 2,0 3,0l0 0zm81 40c3,-1 5,0 8,1 3,2 5,4 7,7l0 0 48 86c-6,2 -13,4 -19,5 -36,8 -73,6 -105,-5l47 -86 0 0c3,-5 8,-8 14,-8l0 0z"
   inkscape:connector-curvature="0"
   inkscape:export-filename="new.png"
   inkscape:export-xdpi="250.55"
   inkscape:export-ydpi="250.55" />
 </g>
</svg>
