<?xml version="1.0" encoding="UTF-8" standalone="no"?>
<!-- Creator: CorelDRAW X8 -->

<svg
   xml:space="preserve"
   width="5.84617in"
   height="5.88327in"
   version="1.1"
   style="shape-rendering:geometricPrecision; text-rendering:geometricPrecision; image-rendering:optimizeQuality; fill-rule:evenodd; clip-rule:evenodd"
   viewBox="0 0 1109 1116"
   id="svg178"
   sodipodi:docname="linkedin.svg"
   inkscape:export-filename="linkedin.svg"
   inkscape:export-xdpi="96"
   inkscape:export-ydpi="96"
   inkscape:version="1.2.1 (9c6d41e410, 2022-07-14)"
   xmlns:inkscape="http://www.inkscape.org/namespaces/inkscape"
   xmlns:sodipodi="http://sodipodi.sourceforge.net/DTD/sodipodi-0.dtd"
   xmlns="http://www.w3.org/2000/svg"
   xmlns:svg="http://www.w3.org/2000/svg"><sodipodi:namedview
   id="namedview180"
   pagecolor="#ffffff"
   bordercolor="#000000"
   borderopacity="0.25"
   inkscape:showpageshadow="2"
   inkscape:pageopacity="0.0"
   inkscape:pagecheckerboard="0"
   inkscape:deskcolor="#d1d1d1"
   inkscape:document-units="in"
   showgrid="false"
   inkscape:zoom="1.4819565"
   inkscape:cx="280.70999"
   inkscape:cy="282.73434"
   inkscape:window-width="1920"
   inkscape:window-height="1017"
   inkscape:window-x="-8"
   inkscape:window-y="-8"
   inkscape:window-maximized="1"
   inkscape:current-layer="Layer_x0020_1" />
 <defs
   id="defs173">
  <style
   type="text/css"
   id="style166">
   <![CDATA[
    .fil0 {fill:url(#id0);fill-rule:nonzero}
   ]]>
  </style>
  <linearGradient
   id="id0"
   gradientUnits="userSpaceOnUse"
   x1="932.067"
   y1="149.098"
   x2="177.29"
   y2="967.299">
   <stop
   offset="0"
   style="stop-opacity:1; stop-color:#843DE9"
   id="stop168" />
   <stop
   offset="1"
   style="stop-opacity:1; stop-color:#CE5DC9"
   id="stop170" />
  </linearGradient>
 </defs>
 <g
   id="Layer_x0020_1"
   inkscape:label="Layer 1">
  <metadata
   id="CorelCorpID_0Corel-Layer" />
  <path
   id="path14"
   class="fil0"
   d="M0 80c0,-44 37,-80 82,-80l945 0c46,0 82,36 82,80l0 956c0,45 -36,80 -82,80l-945 0c-45,0 -82,-35 -82,-80l0 -956zm336 855l0 -505 -167 0 0 505 167 0zm-84 -573c59,0 95,-39 95,-87 -1,-50 -36,-88 -93,-88 -58,0 -95,38 -95,88 0,48 36,87 92,87l1 0zm177 573l168 0 0 -282c0,-15 1,-30 5,-41 12,-30 40,-61 86,-61 61,0 85,46 85,114l0 270 167 0 0 -290c0,-154 -82,-226 -192,-226 -91,0 -131,50 -153,85l2 0 0 -74 -168 0c2,48 0,505 0,505z"
   inkscape:connector-curvature="0" />
 </g>
</svg>
