<?xml version="1.0" encoding="UTF-8" standalone="no"?>
<!-- Creator: CorelDRAW X8 -->

<svg
   xml:space="preserve"
   width="4.9995in"
   height="5.88327in"
   version="1.1"
   style="shape-rendering:geometricPrecision; text-rendering:geometricPrecision; image-rendering:optimizeQuality; fill-rule:evenodd; clip-rule:evenodd"
   viewBox="0 0 182 214"
   id="svg15"
   sodipodi:docname="linux-logo.svg"
   inkscape:export-filename="linux-logo.svg"
   inkscape:export-xdpi="96"
   inkscape:export-ydpi="96"
   inkscape:version="1.2.1 (9c6d41e410, 2022-07-14)"
   xmlns:inkscape="http://www.inkscape.org/namespaces/inkscape"
   xmlns:sodipodi="http://sodipodi.sourceforge.net/DTD/sodipodi-0.dtd"
   xmlns="http://www.w3.org/2000/svg"
   xmlns:svg="http://www.w3.org/2000/svg"><sodipodi:namedview
   id="namedview17"
   pagecolor="#ffffff"
   bordercolor="#000000"
   borderopacity="0.25"
   inkscape:showpageshadow="2"
   inkscape:pageopacity="0.0"
   inkscape:pagecheckerboard="0"
   inkscape:deskcolor="#d1d1d1"
   inkscape:document-units="in"
   showgrid="false"
   inkscape:zoom="1.4819565"
   inkscape:cx="240.22297"
   inkscape:cy="282.73434"
   inkscape:window-width="1920"
   inkscape:window-height="1017"
   inkscape:window-x="-8"
   inkscape:window-y="-8"
   inkscape:window-maximized="1"
   inkscape:current-layer="Layer_x0020_1" />
 <defs
   id="defs9">
  <style
   type="text/css"
   id="style2">
   <![CDATA[
    .fil0 {fill:url(#id0)}
   ]]>
  </style>
  <linearGradient
   id="id0"
   gradientUnits="userSpaceOnUse"
   x1="0.000143306"
   y1="107.075"
   x2="181.98"
   y2="107.075">
   <stop
   offset="0"
   style="stop-opacity:1; stop-color:#843DE9"
   id="stop4" />
   <stop
   offset="1"
   style="stop-opacity:1; stop-color:#CE5DC9"
   id="stop6" />
  </linearGradient>
 </defs>
 <g
   id="Layer_x0020_1"
   inkscape:label="Layer 1">
  <metadata
   id="CorelCorpID_0Corel-Layer" />
  <path
   class="fil0"
   d="M88 52c0,1 -1,1 -1,1l-1 0c0,0 0,-1 -1,-1 0,0 -1,-1 -1,-2 0,-1 0,-1 1,-1l1 1c1,1 2,2 2,2m-13 -7c0,-3 -1,-5 -4,-5 0,0 0,0 0,0l0 2 2 0c0,1 1,2 1,3l1 0m25 -3c1,0 2,1 3,3l1 0c-1,0 -1,-1 -1,-2 0,-1 0,-1 0,-2 -1,-1 -2,-1 -2,-1 0,0 -1,0 -2,0 0,1 1,1 1,2m-21 11c-1,0 -1,0 -1,-1 0,0 0,-1 1,-2 1,0 2,-1 2,-1 0,0 0,1 0,1 0,1 0,2 -2,3l0 0m-8 -1c-3,-1 -4,-3 -4,-7 0,-2 0,-3 2,-5 0,-1 2,-2 3,-2 2,0 2,1 4,2 0,2 1,5 1,7l0 1 1 0 0 -1c1,0 1,-1 1,-4 0,-2 0,-4 -2,-6 -1,-2 -3,-4 -6,-4 -2,0 -4,2 -5,4 -1,3 -1,5 -1,8 0,3 1,6 4,9 0,-1 1,-1 2,-2m88 100c1,0 1,0 1,-1 0,-1 -1,-3 -3,-5 -2,-2 -5,-4 -10,-4 0,0 -1,0 -1,0 -1,0 -1,0 -2,0 0,0 -2,-1 -2,-1 2,-6 2,-12 2,-17 0,-7 -1,-12 -4,-17 -3,-4 -5,-6 -9,-7 -1,1 -1,1 -1,2 4,1 7,4 10,8 2,5 2,10 2,15 0,3 0,9 -3,17 -3,1 -6,4 -8,8 0,0 0,1 1,1 0,0 0,-1 1,-2 2,-1 2,-3 4,-4 2,-1 3,-2 5,-2 4,0 7,1 10,2 2,1 4,2 5,3 0,1 1,2 2,3 0,1 0,1 0,1m-65 -103c-1,0 -1,-2 -1,-3 0,-3 0,-4 2,-6 1,-2 3,-3 4,-3 2,0 4,2 5,3 1,2 1,4 1,6 0,3 -1,6 -4,6 0,0 1,1 2,1 1,0 2,1 3,1 1,-4 2,-7 2,-10 0,-4 -1,-7 -3,-9 -2,-3 -4,-3 -7,-3 -2,0 -4,0 -6,2 -1,2 -2,3 -2,6 0,3 1,6 2,9 1,0 1,0 2,0m9 12c-10,6 -17,9 -22,9 -5,0 -10,-2 -15,-6 1,2 2,3 3,4l4 4c3,3 6,4 10,4 5,0 10,-2 18,-7l6 -5c1,-1 3,-2 3,-5 0,0 0,-1 -1,-1 -1,-1 -4,-4 -11,-6 -7,-3 -12,-4 -15,-4 -2,0 -5,1 -10,4 -4,3 -7,6 -7,9 0,0 0,1 1,2 4,4 9,6 13,6 6,0 13,-3 22,-10l0 1c1,0 1,1 1,1m16 143c3,5 8,8 13,8 2,0 3,0 5,-1 1,0 3,0 3,-1 1,0 2,-1 2,-1 2,-1 2,-1 2,-2l13 -10c2,-2 5,-4 9,-6 3,-2 5,-3 7,-4 2,0 3,-1 5,-2 1,-1 1,-2 1,-4 0,-2 -1,-4 -3,-5 -1,-1 -2,-2 -4,-2 -1,-1 -3,-2 -5,-4 -1,-2 -3,-4 -3,-8l-1 -4c-1,-2 -1,-3 -2,-4 0,0 0,0 0,0 -1,0 -2,0 -3,2 -1,1 -3,2 -4,4 -1,1 -3,2 -5,4 -2,1 -4,1 -5,1 -6,0 -9,-1 -11,-4 -1,-2 -2,-5 -3,-8 -1,-1 -2,-2 -3,-2 -4,0 -5,4 -5,11l0 22c0,1 -1,2 -1,5 -1,2 -1,4 -1,7l-1 8 0 0m-103 -4c7,1 14,3 23,6 8,4 14,5 16,5 5,0 9,-2 12,-6 1,-2 1,-3 1,-5 0,-7 -4,-15 -12,-26l-5 -6c-1,-1 -2,-3 -4,-6 -1,-3 -3,-5 -4,-7 -1,-1 -2,-3 -4,-4 -2,-2 -4,-3 -6,-4 -3,1 -5,2 -6,3 -1,2 -2,3 -2,5 0,1 -1,2 -1,3 -1,0 -2,0 -4,1 0,0 -1,0 -2,0l-2 0c-4,0 -6,0 -8,1 -1,2 -2,4 -2,7 0,1 0,3 1,6 0,2 0,4 0,6 0,3 0,6 -2,9 -2,3 -3,5 -3,6 1,3 6,5 14,6m24 -64c0,-5 1,-10 4,-17 2,-6 5,-10 7,-13 0,-1 0,-1 -1,-1l-1 -1c-2,2 -4,7 -7,14 -3,7 -5,13 -5,17 0,3 1,6 3,8 1,3 5,6 11,10l7 5c8,7 13,12 13,15 0,1 -1,3 -3,5 -2,1 -4,2 -5,2 0,0 0,0 0,1 0,0 0,1 2,4 3,4 9,6 18,6 15,0 27,-6 37,-19 0,-4 0,-6 -1,-7l0 -3c0,-4 1,-8 2,-10 1,-2 3,-3 5,-3 1,0 3,0 4,1 1,-5 1,-10 1,-14 0,-7 0,-12 -1,-17 -1,-4 -3,-8 -4,-10l-4 -7c-2,-2 -2,-4 -4,-6 -1,-3 -1,-5 -1,-9 -2,-3 -4,-7 -6,-10 -1,-4 -3,-7 -4,-10l-7 5c-7,5 -12,7 -17,7 -5,0 -8,-1 -10,-4l-4 -3c0,2 -1,5 -3,7l-4 9c-2,5 -3,8 -3,10 -1,1 -1,3 -1,3l-5 10c-6,11 -9,21 -9,29 0,2 0,3 0,5 -3,-2 -4,-5 -4,-9m51 67c-10,0 -17,1 -22,4l0 -1c-3,5 -7,7 -13,7 -3,0 -9,-1 -16,-4 -8,-3 -14,-5 -20,-6 0,0 -2,0 -4,-1 -2,0 -4,0 -5,-1 -2,0 -3,0 -5,-1 -2,-1 -3,-1 -5,-2 -1,-1 -1,-2 -1,-3 0,-1 0,-3 1,-4 0,-1 1,-2 1,-2 1,-1 1,-2 1,-2 1,-1 1,-2 1,-2 1,-1 1,-2 1,-2 0,-1 0,-2 0,-3 0,0 0,-2 0,-6 -1,-4 -1,-6 -1,-7 0,-3 0,-6 2,-8 1,-1 3,-2 5,-2l8 0c0,0 1,-1 3,-2 0,-1 1,-2 1,-2 0,-1 1,-2 1,-2 0,-1 0,-1 0,-1 0,-1 1,-1 1,-2 0,-1 -1,-2 -1,-3 0,-1 0,-1 1,-2 0,-2 1,-6 3,-11l3 -4c2,-4 3,-7 4,-10 2,-2 3,-7 4,-12 2,-5 4,-10 8,-15l6 -7c3,-4 6,-7 7,-10 2,-3 2,-7 2,-9 0,-2 0,-6 -1,-13 -1,-7 -1,-14 -1,-21 0,-5 1,-8 1,-12 1,-3 3,-7 5,-10 3,-3 5,-5 10,-7 4,-1 9,-2 15,-2 2,0 4,0 6,1 2,0 5,0 8,2 3,1 6,3 8,5 3,2 5,5 7,9 2,4 3,9 4,14 1,4 1,7 1,12 0,5 1,7 1,9 1,3 1,5 1,9 1,3 2,6 3,8 2,3 3,5 5,8 2,4 5,7 8,12 6,7 11,15 14,22 4,7 6,17 6,26 0,5 -1,10 -2,15 1,0 2,0 3,1 0,1 1,3 2,7l0 5c1,2 2,3 4,4 1,2 3,3 5,4 1,0 3,1 5,2 1,2 2,3 2,5 0,2 -1,4 -2,5 -2,2 -3,3 -5,3 -2,1 -4,3 -9,5 -3,2 -7,4 -10,7l-7 6c-3,3 -6,5 -8,6 -2,2 -5,2 -8,2l-5 0c-6,-2 -9,-5 -11,-9 -12,-1 -21,-2 -26,-2m0 0l0 0 0 0z"
   id="path12" />
 </g>
</svg>
