<?xml version="1.0" encoding="UTF-8" standalone="no"?>
<!-- Creator: CorelDRAW X8 -->

<svg
   xml:space="preserve"
   width="5.17906in"
   height="5.8832898in"
   version="1.1"
   style="clip-rule:evenodd;fill-rule:evenodd;image-rendering:optimizeQuality;shape-rendering:geometricPrecision;text-rendering:geometricPrecision"
   viewBox="0 0 238 270"
   id="svg15"
   sodipodi:docname="mocha-logo.svg"
   inkscape:export-filename="mocha-logo.svg"
   inkscape:export-xdpi="96"
   inkscape:export-ydpi="96"
   inkscape:version="1.2.1 (9c6d41e410, 2022-07-14)"
   xmlns:inkscape="http://www.inkscape.org/namespaces/inkscape"
   xmlns:sodipodi="http://sodipodi.sourceforge.net/DTD/sodipodi-0.dtd"
   xmlns="http://www.w3.org/2000/svg"
   xmlns:svg="http://www.w3.org/2000/svg"><sodipodi:namedview
   id="namedview17"
   pagecolor="#ffffff"
   bordercolor="#000000"
   borderopacity="0.25"
   inkscape:showpageshadow="2"
   inkscape:pageopacity="0.0"
   inkscape:pagecheckerboard="0"
   inkscape:deskcolor="#d1d1d1"
   inkscape:document-units="in"
   showgrid="false"
   inkscape:zoom="1.4819515"
   inkscape:cx="248.32122"
   inkscape:cy="282.06052"
   inkscape:window-width="1920"
   inkscape:window-height="1017"
   inkscape:window-x="-8"
   inkscape:window-y="-8"
   inkscape:window-maximized="1"
   inkscape:current-layer="Layer_x0020_1" />
 <defs
   id="defs9"><style
     type="text/css"
     id="style2">
   <![CDATA[
    .fil0 {fill:url(#id0)}
   ]]>
  </style><linearGradient
     id="id0"
     gradientUnits="userSpaceOnUse"
     x1="21.3018"
     y1="56.134201"
     x2="216.597"
     y2="214.11301">
   <stop
   offset="0"
   style="stop-opacity:1; stop-color:#843DE9"
   id="stop4" />
   <stop
   offset="1"
   style="stop-opacity:1; stop-color:#CE5DC9"
   id="stop6" />
  </linearGradient></defs>
 <g
   id="Layer_x0020_1"
   inkscape:label="Layer 1"
   inkscape:groupmode="layer">
  <metadata
   id="CorelCorpID_0Corel-Layer" />
  <path
   class="fil0"
   d="m 231,208 -105,60 c -4,3 -10,3 -14,0 L 7,208 C 3,205 0,201 0,195 V 75 C 0,70 3,65 7,62 L 112,2 c 4,-3 10,-3 14,0 l 105,60 c 4,3 7,8 7,13 v 120 c 0,6 -3,10 -7,13 z M 119,18 c -2,0 -5,1 -6,2 L 22,72 c -4,2 -6,7 -6,11 v 104 c 0,5 2,9 6,11 l 91,52 c 1,1 4,2 6,2 2,0 4,-1 6,-2 l 90,-52 c 4,-2 7,-7 7,-11 V 83 c 0,-5 -3,-9 -7,-11 L 125,20 c -2,-1 -4,-2 -6,-2 z m 0,5 v 0 c 1,0 3,0 4,1 l 90,52 c 3,1 4,4 4,7 v 104 c 0,3 -1,6 -4,7 l -90,52 c -1,1 -3,2 -4,2 -2,0 -3,-1 -4,-2 L 25,194 c -3,-1 -5,-4 -5,-7 V 83 c 0,-3 2,-6 5,-7 l 90,-52 c 1,-1 2,-1 4,-1 z m -9,91 h 13 c 0,0 0,-1 1,-1 7,-8 8,-25 8,-30 0,-1 -1,-2 -2,-2 h -13 -14 c -1,0 -2,1 -2,2 0,5 1,22 8,30 1,0 1,1 1,1 z m -3,-28 h 10 9 c 1,0 2,1 2,1 0,4 -1,16 -6,22 0,0 -1,0 -1,0 h -9 c 0,0 0,0 -1,0 -5,-6 -5,-18 -5,-22 0,0 0,-1 1,-1 z m 12,-7 c 0,0 6,-3 2,-9 -2,-3 -2,-5 -2,-6 -2,2 -5,4 -1,10 1,1 1,4 1,5 z m -5,0 c 0,0 3,-2 1,-6 -1,-2 -2,-3 -1,-4 -2,2 -4,3 -2,7 1,1 2,2 2,3 z m -1,29 h 7 c 1,0 1,-1 1,-1 3,-3 4,-7 4,-11 0,0 0,1 -3,2 -5,2 -13,1 -13,1 0,3 1,6 3,8 0,0 1,1 1,1 z m -54,40 v -29 h -6 l -9,14 -9,-14 h -5 v 29 h 5 v -20 l 9,13 v 0 l 9,-13 v 20 z m 32,-28 c -2,-1 -4,-1 -6,-1 -2,0 -4,0 -6,1 -2,1 -4,2 -5,3 -1,2 -2,3 -3,5 -1,2 -1,4 -1,6 v 0 c 0,2 0,4 1,6 1,2 2,3 3,4 1,2 3,3 5,4 2,0 4,1 6,1 2,0 4,-1 6,-1 2,-1 3,-2 5,-4 1,-1 2,-3 3,-4 1,-2 1,-4 1,-6 v 0 c 0,-2 0,-4 -1,-6 -1,-2 -2,-4 -3,-5 -1,-1 -3,-2 -5,-3 z m 4,14 c 0,1 -1,3 -1,4 -1,1 -1,2 -2,3 -1,1 -2,2 -3,2 -1,1 -3,1 -4,1 -2,0 -3,0 -4,-1 -1,0 -2,-1 -3,-2 -1,-1 -2,-2 -2,-3 -1,-2 -1,-3 -1,-4 v 0 c 0,-2 0,-3 1,-4 0,-2 1,-3 2,-4 1,0 2,-1 3,-2 1,0 2,-1 4,-1 1,0 3,1 4,1 1,1 2,2 3,2 1,1 1,2 2,4 0,1 1,2 1,4 z m 21,-4 c 1,-2 1,-3 2,-4 1,0 2,-1 3,-2 1,0 2,-1 4,-1 2,0 3,1 4,1 2,1 3,2 4,3 l 3,-4 c 0,0 -1,-1 -2,-2 -1,0 -1,-1 -2,-1 -1,0 -2,-1 -3,-1 -2,0 -3,0 -4,0 -2,0 -4,0 -6,1 -2,1 -4,2 -5,3 -1,2 -2,3 -3,5 -1,2 -1,4 -1,6 v 0 c 0,2 0,4 1,6 1,2 2,3 3,4 1,2 3,3 5,4 1,0 3,1 6,1 1,0 2,0 3,-1 1,0 3,0 3,-1 1,0 2,0 3,-1 1,-1 2,-1 2,-2 l -3,-4 c -1,2 -3,2 -4,3 -1,1 -2,1 -4,1 -1,0 -3,0 -4,-1 -1,0 -2,-1 -3,-2 -1,-1 -2,-2 -2,-3 0,-2 -1,-3 -1,-4 v 0 c 0,-2 1,-3 1,-4 z m 31,-11 v 29 h 5 v -12 h 14 v 12 h 5 v -29 h -5 v 12 h -14 v -12 z m 55,22 3,7 h 6 l -13,-29 h -5 l -13,29 h 6 l 3,-7 z m -7,-16 5,12 h -9 z M 26,159 h 185 v -2 H 26 Z m 107,-56 c 0,1 0,1 0,2 h 78 v -2 z m -33,0 H 26 v 2 h 75 c 0,-1 -1,-1 -1,-2 z"
   id="path12"
   style="fill:url(#id0)" />
 </g>
</svg>
