<?xml version="1.0" encoding="UTF-8" standalone="no"?>
<!-- Creator: CorelDRAW X8 -->

<svg
   xml:space="preserve"
   width="12.9323in"
   height="3.4166in"
   version="1.1"
   style="clip-rule:evenodd;fill-rule:evenodd;image-rendering:optimizeQuality;shape-rendering:geometricPrecision;text-rendering:geometricPrecision"
   viewBox="0 0 2071 547"
   id="svg172"
   sodipodi:docname="mongo-logo.svg"
   inkscape:export-filename="mongo-logo.svg"
   inkscape:export-xdpi="96"
   inkscape:export-ydpi="96"
   inkscape:version="1.2.1 (9c6d41e410, 2022-07-14)"
   xmlns:inkscape="http://www.inkscape.org/namespaces/inkscape"
   xmlns:sodipodi="http://sodipodi.sourceforge.net/DTD/sodipodi-0.dtd"
   xmlns="http://www.w3.org/2000/svg"
   xmlns:svg="http://www.w3.org/2000/svg"><sodipodi:namedview
   id="namedview174"
   pagecolor="#ffffff"
   bordercolor="#000000"
   borderopacity="0.25"
   inkscape:showpageshadow="2"
   inkscape:pageopacity="0.0"
   inkscape:pagecheckerboard="0"
   inkscape:deskcolor="#d1d1d1"
   inkscape:document-units="in"
   showgrid="false"
   inkscape:zoom="0.97462687"
   inkscape:cx="620.75038"
   inkscape:cy="164.16539"
   inkscape:window-width="1920"
   inkscape:window-height="1017"
   inkscape:window-x="-8"
   inkscape:window-y="-8"
   inkscape:window-maximized="1"
   inkscape:current-layer="Layer_x0020_1" />
 <defs
   id="defs166"><style
     type="text/css"
     id="style159">
   <![CDATA[
    .fil0 {fill:url(#id0)}
   ]]>
  </style><linearGradient
     id="id0"
     gradientUnits="userSpaceOnUse"
     x1="134.73"
     y1="198.534"
     x2="110.904"
     y2="285.496">
   <stop
   offset="0"
   style="stop-opacity:1; stop-color:#843DE9"
   id="stop161" />
   <stop
   offset="1"
   style="stop-opacity:1; stop-color:#CE5DC9"
   id="stop163" />
  </linearGradient></defs>
 <g
   id="Layer_x0020_1"
   inkscape:label="Layer 1"
   inkscape:groupmode="layer">
  <metadata
   id="CorelCorpID_0Corel-Layer" />
  <path
   class="fil0"
   d="M 241,218 C 212,91 152,57 137,33 131,22 125,11 120,0 119,11 118,18 108,27 89,44 7,111 0,255 c -6,135 99,218 113,227 11,5 24,0 30,-5 51,-35 121,-128 98,-259 m 0,0 z M 125,410 c -3,33 -5,53 -12,72 0,0 5,32 8,65 h 11 c 2,-23 7,-47 12,-70 -14,-7 -19,-38 -19,-67 z m 1915,21 c -17,0 -31,-14 -31,-31 0,-18 14,-32 31,-32 17,0 31,14 31,31 0,0 0,1 0,1 0,17 -13,31 -31,31 0,0 0,0 0,0 m 0,-60 c 0,0 0,0 0,0 -16,0 -29,13 -29,29 0,15 13,28 29,28 16,0 28,-13 28,-28 0,0 0,-1 0,-1 0,-15 -12,-28 -28,-28 0,0 0,0 0,0 m 8,48 -8,-17 h -7 v 17 h -5 v -39 h 12 c 9,0 12,4 12,11 0,6 -2,9 -8,10 l 9,18 z m -15,-21 h 7 c 6,0 8,-2 8,-7 0,-5 -2,-7 -9,-7 h -6 z m -458,4 c 9,7 25,10 40,10 20,0 39,-4 57,-20 19,-17 32,-44 32,-85 0,-41 -15,-73 -47,-92 -17,-12 -40,-16 -67,-16 -7,0 -15,0 -19,2 -2,2 -3,4 -4,6 -1,7 -1,62 -1,94 0,33 0,79 1,85 1,5 3,13 8,16 m -80,-221 c 7,0 33,1 45,1 22,0 38,-1 80,-1 36,0 65,10 87,28 25,22 39,53 39,91 0,54 -24,85 -49,102 -24,19 -56,29 -102,29 -24,0 -65,-1 -100,-1 v 0 c -2,-3 3,-16 5,-16 10,-1 12,-2 17,-3 7,-3 9,-7 9,-20 2,-25 1,-54 1,-88 0,-24 1,-70 0,-85 -1,-12 -7,-15 -17,-18 -8,-1 -15,-2 -23,-3 -1,-3 6,-13 8,-16 m 0,0 z m 351,20 c -2,1 -4,5 -4,7 0,14 0,51 0,77 0,1 1,2 2,2 5,1 18,1 28,1 16,0 25,-2 29,-4 13,-7 19,-21 19,-36 0,-34 -24,-47 -60,-47 0,0 -1,0 -1,0 -4,0 -9,0 -13,0 m 91,160 c 0,-35 -26,-55 -73,-55 -2,0 -17,-1 -20,0 -1,0 -3,1 -3,2 0,25 0,65 1,81 1,7 6,16 12,19 6,4 21,5 31,5 28,0 52,-16 52,-52 M 1773,182 c 4,0 15,1 42,1 26,0 47,-1 72,-1 30,0 73,11 73,58 0,22 -16,41 -37,49 -1,1 -1,2 0,2 30,7 56,26 56,61 0,34 -21,55 -52,69 -19,8 -43,11 -66,11 -18,0 -67,-2 -94,-1 -3,-2 3,-14 5,-16 6,-1 13,-2 18,-3 10,-3 11,-6 12,-20 1,-12 1,-57 1,-88 0,-43 1,-72 0,-86 0,-11 -4,-15 -12,-17 -6,-1 -16,-2 -24,-4 -2,-2 4,-14 6,-15 m 0,0 z M 330,431 c 0,-2 -1,-4 -1,-7 0,0 0,-1 0,-1 0,0 0,-1 0,-1 0,-1 1,-3 1,-5 6,0 11,-1 16,-3 7,-1 10,-5 10,-14 1,-22 1,-62 1,-90 v -1 c 0,-3 0,-7 -4,-10 -7,-4 -14,-8 -21,-10 -4,-1 -6,-3 -5,-5 0,-2 2,-4 6,-5 12,-1 42,-8 54,-14 1,1 2,3 2,5 0,0 0,0 0,1 0,1 0,2 0,4 -1,4 -1,8 -1,13 0,1 1,2 3,2 1,0 1,0 2,-1 23,-18 43,-24 54,-24 17,0 31,8 41,25 0,1 1,2 2,2 1,0 2,-1 2,-2 21,-15 42,-25 56,-25 33,0 53,25 53,66 0,12 0,27 0,41 -1,12 -1,24 -1,32 0,2 3,7 7,8 5,2 12,4 20,5 h 1 c 0,3 -1,12 -2,14 -2,0 -6,-1 -9,-1 -7,0 -16,-1 -27,-1 -22,0 -34,1 -45,2 0,-3 -1,-12 0,-14 5,0 9,-1 14,-3 7,-2 9,-5 9,-14 0,-7 2,-65 -1,-79 -2,-14 -13,-31 -36,-31 -9,0 -23,4 -36,14 -1,1 -2,2 -2,4 v 0 c 2,7 2,16 2,29 0,8 0,15 0,23 0,16 0,31 0,43 0,7 5,9 9,11 2,0 3,1 5,1 3,1 6,2 11,2 0,2 1,3 1,5 0,2 -1,4 -1,5 0,2 -1,3 -1,4 -13,-1 -25,-1 -43,-1 -6,0 -14,0 -22,0 -7,1 -13,1 -16,1 -1,-2 -1,-4 -1,-6 0,0 0,-1 0,-1 0,0 0,-1 0,-1 0,-2 0,-4 1,-6 h 5 c 4,-1 8,-2 11,-3 6,-2 8,-5 9,-12 1,-18 2,-69 -1,-82 -4,-20 -16,-31 -34,-31 -11,0 -25,6 -37,14 -2,2 -3,5 -3,8 0,0 0,0 0,0 0,6 0,14 0,21 0,26 0,58 0,72 1,4 2,9 10,11 2,0 5,1 9,1 2,1 4,1 6,1 0,2 0,3 0,5 0,3 0,6 -1,9 -4,0 -8,0 -13,-1 -7,0 -17,0 -27,0 -13,0 -22,0 -29,0 -4,1 -9,1 -13,1 m 0,0 z M 734,282 c 0,0 0,0 -1,0 -6,0 -13,2 -18,5 -14,9 -21,26 -21,51 0,47 23,79 57,79 0,0 0,0 1,0 8,0 17,-3 23,-9 11,-8 16,-25 16,-49 0,-46 -23,-77 -57,-77 m 7,152 c -61,0 -82,-44 -82,-85 0,-29 11,-52 35,-68 16,-10 35,-15 54,-16 46,0 79,33 79,81 0,32 -13,58 -38,74 -11,7 -32,14 -48,14 m 0,0 z m 609,-152 c -1,0 -1,0 -1,0 -7,0 -13,2 -19,5 -14,9 -21,26 -21,51 0,47 24,79 57,79 0,0 1,0 1,0 9,0 17,-3 24,-9 10,-8 15,-25 15,-49 0,-46 -22,-77 -56,-77 m 6,152 c -60,0 -82,-44 -82,-85 0,-29 12,-52 35,-68 17,-10 35,-15 55,-16 46,0 78,33 78,81 0,32 -13,58 -37,74 -12,7 -32,14 -49,14 m 0,0 z M 1146,280 c -19,0 -31,15 -31,38 0,23 11,50 40,50 5,0 14,-2 18,-7 7,-7 12,-19 12,-33 0,-30 -15,-48 -39,-48 m -2,158 c 0,0 -1,0 -1,0 -5,0 -10,1 -14,3 -15,10 -22,19 -22,30 0,10 4,19 13,26 10,9 24,13 42,13 36,0 53,-20 53,-39 0,-13 -7,-22 -21,-27 -11,-4 -28,-6 -50,-6 m 2,92 c -22,0 -37,-5 -50,-15 -13,-10 -19,-25 -19,-35 0,-7 2,-13 7,-18 4,-4 12,-12 33,-26 0,-1 1,-1 1,-2 0,0 0,0 0,0 0,0 0,0 0,0 0,-1 -1,-1 -2,-2 -16,-6 -21,-16 -23,-22 0,0 0,-1 0,-1 -1,-2 -1,-4 2,-7 2,-1 6,-3 10,-6 6,-3 11,-6 16,-10 1,-1 1,-1 1,-2 0,-1 -1,-2 -1,-2 -25,-9 -37,-27 -37,-55 0,0 0,0 0,0 0,-18 8,-35 22,-45 10,-8 35,-17 51,-17 h 1 c 17,0 26,4 39,9 7,2 14,3 21,3 1,0 1,0 2,0 14,0 20,-4 25,-9 1,2 1,5 1,7 0,1 0,1 0,1 0,6 -1,11 -4,15 -3,4 -10,7 -16,7 0,0 -1,0 -1,0 -4,0 -7,-1 -10,-2 l -1,1 c -1,1 -1,1 0,3 0,0 0,0 0,0 1,5 2,10 2,15 0,30 -11,42 -24,52 -12,9 -26,14 -41,16 v 0 c -1,0 -2,0 -5,0 -2,0 -4,1 -5,1 v 0 c -3,0 -10,4 -10,10 0,5 3,12 19,13 l 10,1 c 20,1 45,3 57,7 16,5 26,20 26,37 0,0 0,1 0,1 0,26 -18,51 -50,66 -14,7 -30,11 -46,11 -1,0 -1,0 -1,0 m 0,0 z m -92,-113 c -9,-1 -16,-3 -23,-6 -2,-2 -3,-4 -3,-6 -1,-12 -1,-48 -1,-71 0,-19 -3,-36 -11,-48 -10,-14 -24,-22 -41,-22 -16,0 -37,11 -54,26 -1,0 -3,3 -3,-1 0,-4 1,-12 1,-17 0,0 0,-1 0,-1 0,-2 -1,-5 -3,-6 -11,5 -43,13 -54,14 -9,2 -11,10 -2,13 v 0 c 7,2 14,5 21,9 3,3 3,7 3,10 0,26 0,67 -1,90 0,8 -3,12 -9,13 h 1 c -5,1 -10,2 -15,3 -2,2 -2,13 0,16 4,0 24,-2 41,-2 23,0 35,2 41,2 3,-3 4,-14 2,-16 -5,-1 -11,-1 -16,-3 -7,-1 -8,-4 -9,-12 -1,-18 -1,-58 -1,-85 0,-8 2,-11 5,-13 8,-7 21,-12 33,-12 11,0 19,3 24,8 7,6 11,14 12,23 1,15 1,45 1,71 0,14 -1,18 -6,20 -3,1 -9,2 -17,3 -2,2 -2,13 0,16 11,0 23,-1 40,-1 22,0 36,1 42,1 3,-3 3,-13 2,-16 m 0,0 z"
   id="path169"
   style="fill:url(#id0)" />
 </g>
</svg>
