<?xml version="1.0" encoding="UTF-8" standalone="no"?>
<!-- Creator: CorelDRAW X8 -->

<svg
   xml:space="preserve"
   width="9.5516in"
   height="5.84989in"
   version="1.1"
   style="shape-rendering:geometricPrecision; text-rendering:geometricPrecision; image-rendering:optimizeQuality; fill-rule:evenodd; clip-rule:evenodd"
   viewBox="0 0 2721 1667"
   id="svg17"
   sodipodi:docname="node-logo.svg"
   inkscape:export-filename="node-logo.svg"
   inkscape:export-xdpi="96"
   inkscape:export-ydpi="96"
   inkscape:version="1.2.1 (9c6d41e410, 2022-07-14)"
   xmlns:inkscape="http://www.inkscape.org/namespaces/inkscape"
   xmlns:sodipodi="http://sodipodi.sourceforge.net/DTD/sodipodi-0.dtd"
   xmlns="http://www.w3.org/2000/svg"
   xmlns:svg="http://www.w3.org/2000/svg"><sodipodi:namedview
   id="namedview19"
   pagecolor="#ffffff"
   bordercolor="#000000"
   borderopacity="0.25"
   inkscape:showpageshadow="2"
   inkscape:pageopacity="0.0"
   inkscape:pagecheckerboard="0"
   inkscape:deskcolor="#d1d1d1"
   inkscape:document-units="in"
   showgrid="false"
   inkscape:zoom="1.3195869"
   inkscape:cx="458.47682"
   inkscape:cy="281.1486"
   inkscape:window-width="1920"
   inkscape:window-height="1017"
   inkscape:window-x="-8"
   inkscape:window-y="-8"
   inkscape:window-maximized="1"
   inkscape:current-layer="Layer_x0020_1" />
 <defs
   id="defs11">
  <style
   type="text/css"
   id="style2">
   <![CDATA[
    .fil0 {fill:url(#id0)}
   ]]>
  </style>
  <linearGradient
   id="id0"
   gradientUnits="userSpaceOnUse"
   x1="1206.14"
   y1="1147.18"
   x2="1483.89"
   y2="1515.66">
   <stop
   offset="0"
   style="stop-opacity:1; stop-color:#843DE9"
   id="stop4" />
   <stop
   offset="0.588235"
   style="stop-opacity:1; stop-color:#A94DD9"
   id="stop6" />
   <stop
   offset="1"
   style="stop-opacity:1; stop-color:#CE5DC9"
   id="stop8" />
  </linearGradient>
 </defs>
 <g
   id="Layer_x0020_1"
   inkscape:label="Layer 1">
  <metadata
   id="CorelCorpID_0Corel-Layer" />
  <path
   class="fil0"
   d="M1345 1667c-9,0 -18,-3 -26,-7l-82 -49c-12,-7 -6,-9 -2,-10 16,-6 20,-7 37,-17 2,-1 4,-1 6,0l63 38c3,1 6,1 8,0l246 -142c2,-2 3,-4 3,-7l0 -284c0,-2 -1,-5 -3,-6l-246 -142c-2,-1 -5,-1 -8,0l-245 142c-3,1 -4,4 -4,6l0 284c0,3 1,5 4,7l67 38c37,19 59,-3 59,-24l0 -280c0,-4 3,-7 7,-7l31 0c4,0 7,3 7,7l0 280c0,48 -26,76 -73,76 -14,0 -25,0 -56,-15l-65 -37c-16,-9 -25,-27 -25,-45l0 -284c0,-18 9,-35 25,-44l246 -142c16,-9 37,-9 52,0l246 142c16,9 25,26 25,44l0 284c0,18 -9,36 -25,45l-246 142c-8,4 -17,7 -26,7m0 0l0 0 0 0zm76 -196c-107,0 -130,-49 -130,-90 0,-4 3,-7 7,-7l32 0c3,0 6,2 7,6 5,32 19,48 84,48 52,0 74,-12 74,-39 0,-16 -7,-28 -87,-35 -67,-7 -109,-22 -109,-76 0,-49 42,-79 112,-79 79,0 118,27 123,86 0,2 -1,4 -2,6 -2,1 -4,2 -5,2l-32 0c-4,0 -7,-2 -7,-6 -8,-34 -27,-45 -77,-45 -57,0 -63,20 -63,35 0,18 8,23 84,33 75,10 111,24 111,77 0,54 -44,85 -122,85m299 -301l8 0c7,0 8,-5 8,-8 0,-7 -5,-7 -7,-7l-9 0 0 15zm-10 -23l18 0c7,0 19,0 19,14 0,9 -6,11 -10,13 7,0 8,5 9,12 0,4 1,11 2,14l-11 0c0,-3 -2,-16 -2,-17 -1,-3 -2,-4 -5,-4l-10 0 0 21 -10 0 0 -53zm-22 26c0,22 18,40 40,40 22,0 39,-18 39,-40 0,-22 -18,-40 -39,-40 -22,0 -40,18 -40,40m87 0c0,26 -21,48 -47,48 -26,0 -48,-21 -48,-48 0,-27 22,-47 48,-47 25,0 47,20 47,47m0 0l0 0 0 0zm931 -513c10,-5 15,-16 15,-27l0 -73c0,-11 -5,-21 -15,-27l-259 -150c-10,-6 -22,-6 -32,0l-260 150c-10,6 -16,16 -16,27l0 301c0,11 6,22 16,27l259 148c9,5 21,6 31,0l156 -87c5,-3 8,-8 8,-14 0,-5 -3,-10 -8,-13l-262 -151c-5,-2 -8,-8 -8,-13l0 -95c0,-5 3,-10 8,-13l82 -47c5,-3 11,-3 15,0l82 47c5,2 8,8 8,13l0 74c0,6 3,11 8,14 5,3 11,3 16,0l156 -91zm-868 -659c-5,-3 -11,-3 -16,0 -5,3 -8,8 -8,14l0 400c0,4 -2,7 -5,9 -3,2 -8,2 -11,0l-65 -37c-10,-6 -22,-6 -32,0l-260 150c-10,6 -16,16 -16,27l0 301c0,11 6,22 16,27l260 151c10,6 22,6 32,0l260 -151c10,-5 16,-16 16,-27l0 -750c0,-11 -6,-22 -16,-27l-155 -87zm-24 765c0,3 -2,6 -4,7l-90 52c-2,1 -5,1 -8,0l-89 -52c-3,-1 -4,-4 -4,-7l0 -103c0,-3 1,-5 4,-7l89 -52c3,-1 6,-1 8,0l90 52c2,2 4,4 4,7l0 103zm-1230 -210c0,-11 -6,-22 -16,-27l-260 -150c-5,-3 -10,-4 -15,-4l-2 0c-5,0 -10,1 -15,4l-260 150c-10,5 -16,16 -16,27l1 404c0,6 2,11 7,14 5,2 11,2 16,0l155 -89c10,-6 16,-16 16,-28l0 -188c0,-11 6,-22 15,-27l66 -38c5,-3 11,-5 16,-5 5,0 11,2 16,5l66 38c9,5 15,16 15,27l0 188c0,12 6,22 16,28l155 88c5,3 11,3 16,0 5,-2 8,-8 8,-13l0 -404zm1843 90c2,-1 4,-1 6,0l50 29c2,1 3,3 3,5l0 58c0,2 -1,4 -3,5l-50 29c-2,1 -4,1 -6,0l-50 -29c-2,-1 -3,-3 -3,-5l0 -58c0,-2 1,-4 3,-5l50 -29zm-1723 -13l0 -73 0 0 0 0c0,-11 6,-22 15,-27l259 -150c6,-3 11,-5 17,-5 6,0 12,2 17,5l259 150c9,5 15,16 15,27l0 0 0 0 0 73 0 228c0,11 -6,22 -15,27l-100 57c-2,2 -3,3 -5,4l-86 48 -68 39c-6,3 -11,4 -17,4 -6,0 -11,-1 -16,-4l-68 -39 -87 -48c-2,-1 -3,-2 -4,-4l-100 -57c-10,-5 -16,-16 -16,-27l0 -228zm291 191l91 -53c5,-2 8,-8 8,-13l0 -11c-2,-3 -3,-6 -3,-10l0 -74c0,-5 -3,-11 -8,-13l-82 -47c-2,-1 -4,-2 -6,-2 -2,0 -4,1 -6,2l-82 47c-5,2 -8,8 -8,13l0 74c0,4 -1,7 -3,10l0 11c0,5 3,11 8,13l91 53z"
   id="path14" />
 </g>
</svg>
