<?xml version="1.0" encoding="UTF-8" standalone="no"?>
<!-- Creator: CorelDRAW X8 -->

<svg
   xml:space="preserve"
   width="6.0229in"
   height="6.31711in"
   version="1.1"
   style="shape-rendering:geometricPrecision; text-rendering:geometricPrecision; image-rendering:optimizeQuality; fill-rule:evenodd; clip-rule:evenodd"
   viewBox="0 0 576 604"
   id="svg15"
   sodipodi:docname="sql-logo.svg"
   inkscape:export-filename="sql-logo.svg"
   inkscape:export-xdpi="96"
   inkscape:export-ydpi="96"
   inkscape:version="1.2.1 (9c6d41e410, 2022-07-14)"
   xmlns:inkscape="http://www.inkscape.org/namespaces/inkscape"
   xmlns:sodipodi="http://sodipodi.sourceforge.net/DTD/sodipodi-0.dtd"
   xmlns="http://www.w3.org/2000/svg"
   xmlns:svg="http://www.w3.org/2000/svg"><sodipodi:namedview
   id="namedview17"
   pagecolor="#ffffff"
   bordercolor="#000000"
   borderopacity="0.25"
   inkscape:showpageshadow="2"
   inkscape:pageopacity="0.0"
   inkscape:pagecheckerboard="0"
   inkscape:deskcolor="#d1d1d1"
   inkscape:document-units="in"
   showgrid="false"
   inkscape:zoom="1.3801802"
   inkscape:cx="289.09269"
   inkscape:cy="302.85901"
   inkscape:window-width="1920"
   inkscape:window-height="1017"
   inkscape:window-x="-8"
   inkscape:window-y="-8"
   inkscape:window-maximized="1"
   inkscape:current-layer="Layer_x0020_1" />
 <defs
   id="defs9">
  <style
   type="text/css"
   id="style2">
   <![CDATA[
    .fil0 {fill:url(#id0)}
   ]]>
  </style>
  <linearGradient
   id="id0"
   gradientUnits="userSpaceOnUse"
   x1="188.726"
   y1="207.387"
   x2="382.096"
   y2="280.015">
   <stop
   offset="0"
   style="stop-opacity:1; stop-color:#843DE9"
   id="stop4" />
   <stop
   offset="1"
   style="stop-opacity:1; stop-color:#CE5DC9"
   id="stop6" />
  </linearGradient>
 </defs>
 <g
   id="Layer_x0020_1"
   inkscape:label="Layer 1">
  <metadata
   id="CorelCorpID_0Corel-Layer" />
  <path
   class="fil0"
   d="M388 205c-2,1 -3,2 -5,3 -43,24 -155,22 -198,-2l-2 -1c0,15 0,30 0,45 0,7 -1,10 7,15 40,22 154,24 192,-1 2,-1 3,-2 4,-4 2,-3 2,-5 2,-10 0,-15 0,-30 0,-45zm0 -76c-2,0 -3,1 -5,2 -43,24 -155,23 -198,-1l-2 -1c0,15 0,29 0,44 0,7 -1,10 7,15 40,22 154,24 192,-1 2,-1 3,-2 4,-4 2,-2 2,-5 2,-9 0,-15 0,-30 0,-45zm-4 -97c8,-8 2,-13 -7,-18 -34,-18 -155,-20 -188,3 -18,13 9,23 19,26 41,11 133,14 171,-7 2,-1 3,-2 5,-4zm4 21c-2,1 -3,2 -5,3 -43,23 -155,22 -198,-2l-2 -1c0,15 0,30 0,44 0,7 -1,11 7,15 40,23 154,24 192,-1 2,-1 3,-2 4,-3 2,-3 2,-5 2,-10 0,-15 0,-30 0,-45zm-290 418l-42 -16c-12,-5 -19,-17 -17,-30 2,-13 13,-22 26,-22l10 0c10,0 19,5 23,15l35 -18c-11,-23 -33,-38 -58,-37l-10 0c-32,0 -58,23 -64,55 -6,32 12,63 41,74l42 17c10,4 17,14 17,25l0 1c0,15 -12,27 -26,27l-10 0c-13,0 -24,-9 -26,-22l-38 7c5,32 32,55 64,55l10 0c36,0 65,-30 65,-67l0 -1c0,-28 -17,-53 -42,-63l0 0zm308 12c0,-66 -52,-120 -116,-120 -64,0 -116,54 -116,120 0,67 52,121 116,121l127 0 0 -40 -40 0c19,-22 29,-51 29,-81l0 0zm-116 81c-43,0 -78,-36 -78,-81 0,-44 35,-80 78,-80 43,0 78,36 78,80 0,45 -35,81 -78,81l0 0zm189 -1l0 -200 -39 0 0 240 136 0 0 -40 -97 0z"
   id="path12" />
 </g>
</svg>
