<?xml version="1.0" encoding="UTF-8" standalone="no"?>
<!-- Creator: CorelDRAW X8 -->

<svg
   xml:space="preserve"
   width="5.88327in"
   height="4.78053in"
   version="1.1"
   style="shape-rendering:geometricPrecision; text-rendering:geometricPrecision; image-rendering:optimizeQuality; fill-rule:evenodd; clip-rule:evenodd"
   viewBox="0 0 5123 4163"
   id="svg231"
   sodipodi:docname="twitter.svg"
   inkscape:export-filename="twitter.svg"
   inkscape:export-xdpi="96"
   inkscape:export-ydpi="96"
   inkscape:version="1.2.1 (9c6d41e410, 2022-07-14)"
   xmlns:inkscape="http://www.inkscape.org/namespaces/inkscape"
   xmlns:sodipodi="http://sodipodi.sourceforge.net/DTD/sodipodi-0.dtd"
   xmlns="http://www.w3.org/2000/svg"
   xmlns:svg="http://www.w3.org/2000/svg"><sodipodi:namedview
   id="namedview233"
   pagecolor="#ffffff"
   bordercolor="#000000"
   borderopacity="0.25"
   inkscape:showpageshadow="2"
   inkscape:pageopacity="0.0"
   inkscape:pagecheckerboard="0"
   inkscape:deskcolor="#d1d1d1"
   inkscape:document-units="in"
   showgrid="false"
   inkscape:zoom="1.8238041"
   inkscape:cx="282.37682"
   inkscape:cy="229.19129"
   inkscape:window-width="1920"
   inkscape:window-height="1017"
   inkscape:window-x="-8"
   inkscape:window-y="-8"
   inkscape:window-maximized="1"
   inkscape:current-layer="Layer_x0020_1" />
 <defs
   id="defs225">
  <style
   type="text/css"
   id="style218">
   <![CDATA[
    .fil0 {fill:url(#id0)}
   ]]>
  </style>
  <linearGradient
   id="id0"
   gradientUnits="userSpaceOnUse"
   x1="958.529"
   y1="3762.3"
   x2="4164.95"
   y2="400.851">
   <stop
   offset="0"
   style="stop-opacity:1; stop-color:#843DE9"
   id="stop220" />
   <stop
   offset="1"
   style="stop-opacity:1; stop-color:#CE5DC9"
   id="stop222" />
  </linearGradient>
 </defs>
 <g
   id="Layer_x0020_1"
   inkscape:label="Layer 1">
  <metadata
   id="CorelCorpID_0Corel-Layer" />
  <path
   class="fil0"
   d="M4599 1036c3,46 3,91 3,136 0,1389 -1057,2991 -2991,2991l0 -1c-571,1 -1130,-162 -1611,-471 83,10 167,15 250,15 474,1 933,-158 1306,-451 -450,-8 -845,-301 -982,-730 157,31 320,25 474,-18 -490,-99 -843,-530 -843,-1030l0 -13c146,81 310,126 477,131 -462,-308 -604,-923 -325,-1403 533,656 1321,1056 2166,1098 -85,-365 31,-748 304,-1004 424,-398 1089,-378 1487,45 236,-46 461,-133 668,-255 -79,243 -243,450 -462,581 208,-24 412,-80 603,-165 -141,211 -318,396 -524,544l0 0z"
   id="path228" />
 </g>
</svg>
