<svg width="1200" height="820" viewBox="0 0 1200 820" fill="none" xmlns="http://www.w3.org/2000/svg">
  <rect width="1200" height="820" rx="28" fill="#1D2024"/>
  <rect x="74" y="86" width="1052" height="648" rx="24" fill="#242A30" stroke="#39414B" stroke-width="2"/>
  <rect x="130" y="148" width="550" height="300" rx="22" fill="#171A1E"/>
  <rect x="716" y="158" width="340" height="34" rx="17" fill="#79A7FF"/>
  <rect x="716" y="220" width="278" height="24" rx="12" fill="#9199A5"/>
  <rect x="716" y="264" width="304" height="24" rx="12" fill="#9199A5"/>
  <rect x="716" y="308" width="224" height="24" rx="12" fill="#9199A5"/>
  <rect x="716" y="390" width="236" height="156" rx="20" fill="#171A1E"/>
  <rect x="130" y="506" width="550" height="162" rx="20" fill="#2E353D"/>
  <rect x="176" y="550" width="458" height="20" rx="10" fill="#F2B36D"/>
  <rect x="176" y="592" width="388" height="16" rx="8" fill="#C1C7D0"/>
  <rect x="176" y="624" width="336" height="16" rx="8" fill="#C1C7D0"/>
</svg>
